<svg width="109" height="32" viewBox="0 0 109 32" fill="none" xmlns="http://www.w3.org/2000/svg">
<g clip-path="url(#clip0_13_1467)">
<path d="M31.2284 0.117065V14.3009H23.3603C21.6816 14.3009 20.0716 13.6343 18.8846 12.4479C17.6976 11.2614 17.0307 9.65219 17.0307 7.97426V0.117065H31.2284Z" fill="#06937F"/>
<path d="M23.3606 17.1503H31.2287V31.3366H17.0505V23.477C17.0505 21.8024 17.7147 20.1961 18.8975 19.0102C20.0803 17.8243 21.6853 17.1555 23.3606 17.1503Z" fill="#06937F"/>
<path d="M14.1997 23.477V31.3366H0.00939178V17.1503H7.87749C9.55492 17.1523 11.163 17.8197 12.3484 19.0059C13.5339 20.1922 14.1997 21.8003 14.1997 23.477Z" fill="#06937F"/>
<path d="M7.87749 14.3009H0.00939178V0.117065H14.1997V7.98156C14.1978 9.65696 13.5311 11.2632 12.3459 12.4479C11.1606 13.6326 9.55366 14.299 7.87749 14.3009Z" fill="#06937F"/>
<path d="M17.4451 17.4861C16.7259 18.2064 16.1135 19.0258 15.6266 19.9194C14.6452 18.1241 13.1692 16.6479 11.3736 15.666C13.1685 14.6854 14.6445 13.2109 15.6266 11.4174C16.607 13.2113 18.0823 14.686 19.8771 15.666C18.984 16.1541 18.1651 16.767 17.4451 17.4861Z" fill="#06937F"/>
<path d="M35.1311 0.117065H40.788C43.9074 0.117065 45.4783 1.62112 45.4783 3.73888C45.4783 5.39875 44.3971 6.44173 42.9344 6.77243V6.92824C44.5434 7.00138 46.0411 8.26376 46.0411 10.3561C46.0411 12.6042 44.3494 14.2609 41.176 14.2609H35.1343L35.1311 0.117065ZM40.3333 6.02835C41.5544 6.02835 42.4638 5.35105 42.4638 4.23493C42.4638 3.21421 41.7134 2.53055 40.3874 2.53055H38.117V6.02835H40.3333ZM40.5527 11.8029C42.2221 11.8029 42.9471 11.1065 42.9471 10.0413C42.9471 8.87747 42.0568 8.04754 40.6227 8.04754H38.117V11.8029H40.5527Z" fill="#06937F"/>
<path d="M47.4886 8.99514C47.4886 5.7231 49.5078 3.50995 52.6272 3.50995C55.4287 3.50995 57.6068 5.29065 57.6068 8.8902V9.69788H50.3918C50.3918 11.2878 51.3235 12.2417 52.7926 12.2417C53.772 12.2417 54.5319 11.8188 54.8277 11.0143L57.5464 11.1924C57.133 13.1575 55.3651 14.4358 52.7449 14.4358C49.4824 14.4517 47.4886 12.353 47.4886 8.99514ZM54.8404 7.8822C54.8533 7.5949 54.8066 7.30804 54.7033 7.03963C54.6 6.77123 54.4423 6.52709 54.2402 6.32254C54.038 6.11799 53.7957 5.95746 53.5286 5.85101C53.2614 5.74457 52.9751 5.69453 52.6877 5.70402C52.3935 5.69471 52.1004 5.74383 51.8253 5.84853C51.5503 5.95324 51.2987 6.11145 51.0852 6.31402C50.8717 6.51659 50.7005 6.75949 50.5815 7.02867C50.4624 7.29784 50.398 7.58795 50.3918 7.8822H54.8404Z" fill="#06937F"/>
<path d="M59.1957 17.9146L59.8571 15.7205C60.8906 16.0385 61.6283 15.9876 62.0162 14.9955L62.1879 14.5471L58.388 3.6467H61.4788L63.6729 11.4277H63.781L66.0069 3.6467H69.1167L64.9893 15.3898C64.3884 17.1005 63.2309 18.2166 61.0432 18.2166C60.414 18.2311 59.7875 18.1287 59.1957 17.9146Z" fill="#06937F"/>
<path d="M72.2591 8.46728H69.8583C70.0459 5.6436 71.7948 3.73889 74.5454 3.52902V6.18735C74.5454 6.48729 74.4862 6.78429 74.3712 7.06131C74.2562 7.33834 74.0877 7.58996 73.8753 7.80176C73.663 8.01355 73.4109 8.18136 73.1335 8.29556C72.8562 8.40976 72.559 8.46812 72.2591 8.46728Z" fill="#06937F"/>
<path d="M74.54 11.7711V14.4326C71.7863 14.2228 70.0374 12.3053 69.853 9.49438H72.2601C72.8642 9.49438 73.4437 9.73415 73.8711 10.161C74.2986 10.5879 74.5392 11.167 74.54 11.7711Z" fill="#06937F"/>
<path d="M75.7053 9.61521C75.4473 9.87477 75.2268 10.1691 75.0503 10.4897C74.8737 10.1691 74.6532 9.87477 74.3952 9.61521C74.136 9.35546 73.8404 9.1348 73.5176 8.96016C74.1643 8.60599 74.6961 8.07416 75.0503 7.42749C75.4042 8.0733 75.9347 8.60493 76.5798 8.96016C76.2585 9.13566 75.964 9.35624 75.7053 9.61521Z" fill="#06937F"/>
<path d="M75.5595 6.18735V3.52902C78.3069 3.73889 80.0558 5.6436 80.2466 8.46728H77.8363C77.2322 8.46644 76.6531 8.22586 76.2262 7.79838C75.7993 7.3709 75.5595 6.79148 75.5595 6.18735Z" fill="#06937F"/>
<path d="M80.2466 9.49438C80.0622 12.3053 78.3101 14.2228 75.5595 14.4326V11.7711C75.5604 11.1676 75.8005 10.589 76.2273 10.1622C76.6541 9.73537 77.2327 9.49523 77.8363 9.49438H80.2466Z" fill="#06937F"/>
<path d="M85.1212 14.2418H82.183V3.64668H84.9812V5.51642H85.1084C85.5822 4.28264 86.7206 3.50995 88.2883 3.50995C90.495 3.50995 91.945 5.02672 91.945 7.49744V14.2418H89.0037V8.02211C89.0037 6.72475 88.301 5.95205 87.1213 5.95205C85.9415 5.95205 85.1212 6.75337 85.1212 8.11751V14.2418Z" fill="#06937F"/>
<path d="M93.8697 8.96018C93.8697 5.3161 95.8348 3.50996 98.1592 3.50996C98.7965 3.48161 99.4271 3.64931 99.9661 3.99045C100.505 4.33159 100.927 4.82978 101.174 5.41786H101.266V0.117096H104.201V14.2419H101.301V12.547H101.177C100.923 13.1279 100.498 13.6179 99.9592 13.9518C99.4203 14.2858 98.7925 14.4479 98.1592 14.4167C95.7521 14.4167 93.8697 12.5057 93.8697 8.96018ZM101.339 8.94428C101.339 7.05546 100.538 5.84713 99.1132 5.84713C97.6886 5.84713 96.8873 7.11906 96.8873 8.94428C96.8873 10.7695 97.6727 12.0764 99.1132 12.0764C100.554 12.0764 101.339 10.8363 101.339 8.94428Z" fill="#06937F"/>
<path d="M35.1312 17.0019H40.7881C43.9075 17.0019 45.4783 18.506 45.4783 20.6237C45.4783 22.2868 44.3972 23.3266 42.9345 23.6573V23.7972C44.5435 23.8735 46.0412 25.1359 46.0412 27.225C46.0412 29.4732 44.3495 31.1299 41.176 31.1299H35.1344L35.1312 17.0019ZM40.3334 22.9132C41.5544 22.9132 42.4639 22.2359 42.4639 21.1198C42.4639 20.0991 41.7134 19.4154 40.3874 19.4154H38.1171V22.9132H40.3334ZM40.5528 28.6878C42.2222 28.6878 42.9472 27.9914 42.9472 26.9293C42.9472 25.7623 42.0569 24.9356 40.6228 24.9356H38.1171V28.6878H40.5528Z" fill="#06937F"/>
<path d="M49.9149 25.3521H47.5078C47.6954 22.5316 49.4443 20.6237 52.1917 20.4138V23.0754C52.1908 23.6789 51.9507 24.2575 51.5239 24.6843C51.0971 25.1111 50.5185 25.3513 49.9149 25.3521Z" fill="#06937F"/>
<path d="M52.1917 28.6559V31.3174C49.4411 31.0949 47.6922 29.187 47.5046 26.3792H49.9149C50.5185 26.38 51.0971 26.6202 51.5239 27.047C51.9507 27.4737 52.1908 28.0524 52.1917 28.6559Z" fill="#06937F"/>
<path d="M53.3614 26.5C53.1025 26.7588 52.8819 27.0532 52.7064 27.3745C52.5308 27.0533 52.3102 26.7589 52.0514 26.5C51.7932 26.2404 51.4987 26.0197 51.1769 25.845C51.4973 25.6681 51.7916 25.4477 52.0514 25.1899C52.3114 24.9302 52.533 24.6347 52.7096 24.3123C53.0635 24.9581 53.594 25.4898 54.2391 25.845C53.9167 26.0202 53.6211 26.2408 53.3614 26.5Z" fill="#06937F"/>
<path d="M53.212 23.0754V20.4139C55.9626 20.6237 57.7115 22.5316 57.8991 25.3521H55.4919C54.8878 25.3521 54.3084 25.1124 53.8809 24.6855C53.4534 24.2586 53.2128 23.6795 53.212 23.0754Z" fill="#06937F"/>
<path d="M57.8991 26.3792C57.7146 29.187 55.9657 31.0949 53.212 31.3175V28.656C53.2128 28.0518 53.4534 27.4727 53.8809 27.0459C54.3084 26.619 54.8878 26.3792 55.4919 26.3792H57.8991Z" fill="#06937F"/>
<path d="M59.8356 20.5347H62.6974V22.3822H62.8087C63.1966 21.0721 64.1665 20.3821 65.3525 20.3821C65.6626 20.3841 65.9716 20.4182 66.2747 20.4838V23.0913C65.8695 22.9874 65.4528 22.9351 65.0346 22.9355C64.7393 22.9199 64.444 22.9658 64.1674 23.0703C63.8908 23.1747 63.6389 23.3355 63.4275 23.5423C63.2162 23.7491 63.0502 23.9975 62.9398 24.2718C62.8294 24.5461 62.7772 24.8404 62.7864 25.1359V31.1299H59.8451L59.8356 20.5347Z" fill="#06937F"/>
<path d="M66.8888 25.845C66.8888 22.2041 68.8539 20.3948 71.1784 20.3948C71.8155 20.3669 72.446 20.5348 72.9849 20.8759C73.5238 21.217 73.9454 21.7149 74.1928 22.3027H74.2819V17.0019H77.2137V31.1299H74.3105V29.4318H74.1865C73.9323 30.0107 73.509 30.499 72.9721 30.8327C72.4352 31.1664 71.8099 31.3299 71.1784 31.3016C68.7712 31.3016 66.8888 29.3905 66.8888 25.845ZM74.3455 25.845C74.3455 23.9371 73.5442 22.7479 72.1196 22.7479C70.695 22.7479 69.8937 24.0198 69.8937 25.845C69.8937 27.6702 70.6823 28.9771 72.1196 28.9771C73.5569 28.9771 74.3455 27.7211 74.3455 25.8323V25.845Z" fill="#06937F"/>
<path d="M79.1943 25.88C79.1943 22.6111 81.2166 20.3948 84.3328 20.3948C87.1343 20.3948 89.3156 22.1755 89.3156 25.775V26.5827H82.1006C82.1006 28.1726 83.0291 29.1266 84.5014 29.1266C85.4808 29.1266 86.2376 28.7068 86.5365 27.8992L89.252 28.0772C88.8387 30.0455 87.0739 31.3206 84.4505 31.3206C81.188 31.3365 79.1943 29.2379 79.1943 25.88ZM86.5492 24.7607C86.5613 24.4728 86.5136 24.1855 86.4091 23.917C86.3046 23.6484 86.1457 23.4044 85.9422 23.2004C85.7388 22.9963 85.4952 22.8367 85.227 22.7314C84.9588 22.6262 84.6716 22.5776 84.3837 22.5889C84.0911 22.5812 83.7999 22.6314 83.5267 22.7365C83.2536 22.8416 83.0038 22.9995 82.7917 23.2012C82.5797 23.403 82.4095 23.6445 82.2909 23.9121C82.1723 24.1797 82.1076 24.4681 82.1006 24.7607H86.5492Z" fill="#06937F"/>
<path d="M91.2332 20.5347H94.095V22.3822H94.2063C94.5911 21.0721 95.5641 20.3821 96.7502 20.3821C97.0613 20.384 97.3714 20.4181 97.6755 20.4838V23.0913C97.2703 22.9874 96.8537 22.9351 96.4354 22.9355C96.14 22.92 95.8445 22.9659 95.5678 23.0703C95.291 23.1747 95.0389 23.3354 94.8273 23.5421C94.6158 23.7489 94.4494 23.9973 94.3387 24.2716C94.2279 24.5459 94.1753 24.8402 94.1841 25.1359V31.1299H91.2459L91.2332 20.5347Z" fill="#06937F"/>
<path d="M105.301 23.7209C105.155 23.0372 104.548 22.4776 103.527 22.4776C102.618 22.4776 101.899 22.891 101.905 23.5269C101.905 24.0389 102.265 24.3759 103.25 24.589L105.158 24.9769C107.212 25.3967 108.214 26.3156 108.22 27.8388C108.22 29.9279 106.246 31.3366 103.502 31.3366C100.694 31.3366 98.9703 30.0869 98.6937 28.0582L101.584 27.9087C101.762 28.7705 102.459 29.2188 103.508 29.2188C104.557 29.2188 105.219 28.7705 105.231 28.1408C105.231 27.6098 104.799 27.2728 103.874 27.0851L102.039 26.7226C99.9688 26.3061 98.9703 25.279 98.9767 23.6923C98.9767 21.6508 100.754 20.3948 103.467 20.3948C106.179 20.3948 107.715 21.6031 107.979 23.5555L105.301 23.7209Z" fill="#06937F"/>
</g>
<defs>
<clipPath id="clip0_13_1467">
<rect width="108.488" height="32" fill="white"/>
</clipPath>
</defs>
</svg>
