<svg width="18" height="18" viewBox="0 0 18 18" fill="none" xmlns="http://www.w3.org/2000/svg">
<path d="M3.37881 0.815698C2.80928 1.03718 2.32764 1.3325 1.846 1.81414C1.36436 2.29226 1.06904 2.77742 0.847559 3.34343C0.633105 3.89187 0.488965 4.52117 0.446777 5.44226C0.40459 6.36335 0.394043 6.65867 0.394043 9.0071C0.394043 11.3555 0.40459 11.6509 0.446777 12.5719C0.488965 13.493 0.636621 14.1223 0.847559 14.6708C1.06904 15.2403 1.36436 15.7219 1.846 16.2036C2.32764 16.6852 2.80928 16.9805 3.37881 17.202C3.92725 17.4165 4.55654 17.5606 5.47764 17.6028C6.39873 17.645 6.69404 17.6555 9.04248 17.6555C11.3909 17.6555 11.6862 17.645 12.6073 17.6028C13.5284 17.5606 14.1577 17.413 14.7062 17.202C15.2757 16.9805 15.7573 16.6852 16.239 16.2036C16.7206 15.7219 17.0159 15.2403 17.2374 14.6708C17.4519 14.1223 17.596 13.493 17.6382 12.5719C17.6804 11.6509 17.6909 11.3555 17.6909 9.0071C17.6909 6.65867 17.6804 6.36335 17.6382 5.44226C17.596 4.52117 17.4483 3.89187 17.2374 3.34343C17.0159 2.77742 16.7206 2.29226 16.2425 1.81414C15.7608 1.3325 15.2792 1.03718 14.7097 0.815698C14.1612 0.601245 13.5319 0.457104 12.6108 0.414917C11.6897 0.372729 11.3944 0.362183 9.046 0.362183C6.69756 0.362183 6.40225 0.372729 5.48115 0.414917C4.55654 0.453589 3.92725 0.601245 3.37881 0.815698ZM12.537 1.96882C13.3808 2.0075 13.8378 2.14812 14.1437 2.26765C14.5479 2.42585 14.8362 2.61218 15.1386 2.91453C15.4409 3.21687 15.6272 3.50515 15.7854 3.90945C15.905 4.21531 16.0456 4.67234 16.0843 5.51609C16.1265 6.42664 16.1335 6.70085 16.1335 9.01062C16.1335 11.3204 16.1229 11.5946 16.0843 12.5052C16.0456 13.3489 15.905 13.8059 15.7854 14.1118C15.6272 14.5161 15.4409 14.8044 15.1386 15.1067C14.8362 15.4091 14.5479 15.5954 14.1437 15.7536C13.8378 15.8731 13.3808 16.0137 12.537 16.0524C11.6265 16.0946 11.3522 16.1016 9.04248 16.1016C6.73272 16.1016 6.4585 16.0911 5.54795 16.0524C4.7042 16.0137 4.24717 15.8731 3.94131 15.7536C3.53701 15.5954 3.24873 15.4091 2.94639 15.1067C2.64404 14.8044 2.45771 14.5161 2.29951 14.1118C2.17998 13.8059 2.03936 13.3489 2.00068 12.5052C1.9585 11.5946 1.95146 11.3204 1.95146 9.01062C1.95146 6.70085 1.96201 6.42664 2.00068 5.51609C2.03936 4.67234 2.17998 4.21531 2.29951 3.90945C2.45771 3.50515 2.64404 3.21687 2.94639 2.91453C3.24873 2.61218 3.53701 2.42585 3.94131 2.26765C4.24717 2.14812 4.7042 2.0075 5.54795 1.96882C6.4585 1.92664 6.73272 1.9196 9.04248 1.9196C11.3522 1.9196 11.6265 1.92664 12.537 1.96882Z" fill="black"/>
<path d="M4.60254 9.01055C4.60254 11.4645 6.59238 13.4508 9.04277 13.4508C11.4932 13.4508 13.483 11.4609 13.483 9.01055C13.483 6.56016 11.4967 4.57031 9.04277 4.57031C6.58887 4.57031 4.60254 6.55664 4.60254 9.01055ZM11.9256 9.01055C11.9256 10.6031 10.6354 11.8934 9.04277 11.8934C7.4502 11.8934 6.15996 10.6031 6.15996 9.01055C6.15996 7.41797 7.4502 6.12773 9.04277 6.12773C10.6354 6.12773 11.9256 7.41797 11.9256 9.01055Z" fill="black"/>
<path d="M13.662 5.43172C14.2348 5.43172 14.6991 4.96739 14.6991 4.39461C14.6991 3.82183 14.2348 3.3575 13.662 3.3575C13.0892 3.3575 12.6249 3.82183 12.6249 4.39461C12.6249 4.96739 13.0892 5.43172 13.662 5.43172Z" fill="black"/>
</svg>
